# xmcd
#
# Track frame offsets: 
#        150
#        9997
#        21418
#        42470
#        54579
#        66106
#        78151
#        95460
#        110745
#        129998
#        148209
#        157837
#        172228
#        182049
#        197820
#        207387
#        229159
#        234409
#        248704
#        259567
#        273824
#
# Disc length: 3836 seconds
#
# Revision: 0
# Processed by: cddbd v1.5.2PL0 Copyright (c) Steve Scherf et al.
# Submitted via: ExactAudioCopy v0.99pb3
#
DISCID=240efa15
DTITLE=Various Artist - Terrace Industry (M Squared Box 1980-1983) [CD3]
DYEAR=2010
DGENRE=Ascension
TTITLE0=Scattered Order - Bent Up
TTITLE1=Scattered Order - I'm Not Whole
TTITLE2=Scattered Order - Pilot Reads Crosswords
TTITLE3=Scattered Order - The Learn Useless Knowing
TTITLE4=Scattered Order - Wronging Dogs With Ladders
TTITLE5=Scattered Order - Hold My Cold Hand
TTITLE6=Scattered Order - Heat
TTITLE7=Scattered Order - Personal Safety
TTITLE8=Scattered Order - Yellow Suit Weighing Machine
TTITLE9=The Barons - Paint It Black
TTITLE10=Height-Dismay - Girl From Ipanema
TTITLE11=Height-Dismay - Mother's Footsteps
TTITLE12=Height-Dismay - Picnic On The Nile
TTITLE13=Prod - A Brick Short
TTITLE14=Prod - Walker's Walk
TTITLE15=Prod - N.W.O.B.
TTITLE16=Prod - Coming Attractions
TTITLE17=Prod - Fish Hook
TTITLE18=SoliPsiK - See Saw
TTITLE19=SoliPsiK - Chamber Musik
TTITLE20=SoliPsiK - Zombod
EXTD=
EXTT0=
EXTT1=
EXTT2=
EXTT3=
EXTT4=
EXTT5=
EXTT6=
EXTT7=
EXTT8=
EXTT9=
EXTT10=
EXTT11=
EXTT12=
EXTT13=
EXTT14=
EXTT15=
EXTT16=
EXTT17=
EXTT18=
EXTT19=
EXTT20=
PLAYORDER=
